HIERARCHY
ROOT joint_0
{
	OFFSET 0.000000 0.000000 0.000000
	CHANNELS 6 Xposition Yposition Zposition Zrotation Yrotation Xrotation 
	JOINT joint_1
	{
		OFFSET 6.579712 -2.778931 100.531982
		CHANNELS 3 Zrotation Yrotation Xrotation
		JOINT joint_2
		{
			OFFSET -3.313232 -1.302856 91.974976
			CHANNELS 3 Zrotation Yrotation Xrotation
			JOINT joint_3
			{
				OFFSET -3.421509 -1.641846 91.864014
				CHANNELS 3 Zrotation Yrotation Xrotation
				JOINT joint_4
				{
					OFFSET 7.697388 -4.642578 123.278931
					CHANNELS 3 Zrotation Yrotation Xrotation
					JOINT joint_5
					{
						OFFSET 24.842529 -5.941528 79.695068
						CHANNELS 3 Zrotation Yrotation Xrotation
						End Site
						{
							OFFSET 0.000000 0.000000 0.000000
						}
					}
				}
				JOINT joint_6
				{
					OFFSET -0.159668 -29.112976 68.364014
					CHANNELS 3 Zrotation Yrotation Xrotation
					JOINT joint_7
					{
						OFFSET -18.356079 -115.987061 -20.069092
						CHANNELS 3 Zrotation Yrotation Xrotation
						JOINT joint_8
						{
							OFFSET 31.719482 -11.733276 -267.170898
							CHANNELS 3 Zrotation Yrotation Xrotation
							JOINT joint_9
							{
								OFFSET 29.329956 -5.879517 -234.654053
								CHANNELS 3 Zrotation Yrotation Xrotation
								End Site
								{
									OFFSET 0.000000 0.000000 0.000000
								}
							}
						}
					}
				}
				JOINT joint_10
				{
					OFFSET 8.802979 23.897949 69.798950
					CHANNELS 3 Zrotation Yrotation Xrotation
					JOINT joint_11
					{
						OFFSET 21.159058 115.524292 -19.981934
						CHANNELS 3 Zrotation Yrotation Xrotation
						JOINT joint_12
						{
							OFFSET 18.809204 5.403442 -268.593018
							CHANNELS 3 Zrotation Yrotation Xrotation
							JOINT joint_13
							{
								OFFSET 20.807861 0.421265 -235.639038
								CHANNELS 3 Zrotation Yrotation Xrotation
								End Site
								{
									OFFSET 0.000000 0.000000 0.000000
								}
							}
						}
					}
				}
			}
		}
	}
	JOINT joint_14
	{
		OFFSET -9.713379 -79.513916 -99.348022
		CHANNELS 3 Zrotation Yrotation Xrotation
		JOINT joint_15
		{
			OFFSET -40.607788 -6.518372 -502.938019
			CHANNELS 3 Zrotation Yrotation Xrotation
			JOINT joint_16
			{
				OFFSET -19.807617 -7.437378 -399.590012
				CHANNELS 3 Zrotation Yrotation Xrotation
				JOINT joint_17
				{
					OFFSET 171.701660 -44.751282 -77.782000
					CHANNELS 3 Zrotation Yrotation Xrotation
					End Site
					{
						OFFSET 0.000000 0.000000 0.000000
					}
				}
			}
		}
	}
	JOINT joint_18
	{
		OFFSET 17.854858 79.618652 -98.128052
		CHANNELS 3 Zrotation Yrotation Xrotation
		JOINT joint_19
		{
			OFFSET -24.848877 16.861816 -503.722992
			CHANNELS 3 Zrotation Yrotation Xrotation
			JOINT joint_20
			{
				OFFSET -30.162476 14.470093 -398.750008
				CHANNELS 3 Zrotation Yrotation Xrotation
				JOINT joint_21
				{
					OFFSET 176.096680 -10.987549 -80.021000
					CHANNELS 3 Zrotation Yrotation Xrotation
					End Site
					{
						OFFSET 0.000000 0.000000 0.000000
					}
				}
			}
		}
	}
}
MOTION
Frames: 9
Frame Time: 0.016667
-1801.752441 986.268188 1097.857056 44.075391 0.664990 0.222963 0.041948 -2.015200 -0.489594 0.126267 0.301077 0.080712 0.108722 -0.427302 -0.088128 -0.131163 0.995435 0.599688 0.000000 0.000000 0.000000 -0.379444 1.903078 -0.202443 0.217731 1.847191 0.040566 0.038169 -1.523519 -1.179067 0.000000 0.000000 0.000000 0.866190 0.466585 1.416653 -0.272030 0.849266 -1.547832 -0.090641 -0.240772 0.381690 0.000000 0.000000 0.000000 1.310961 -0.484039 -0.459422 1.249180 1.566719 0.472201 1.479810 -1.938646 0.170727 0.000000 0.000000 0.000000 -1.914823 0.402264 -0.114217 -1.875150 0.107642 -0.299698 -1.869957 -0.973446 -0.913163 0.000000 0.000000 0.000000 
-1801.845825 986.243408 1097.873047 44.063574 0.676042 0.223734 0.044751 -2.001924 -0.495426 0.128329 0.299159 0.082968 0.110741 -0.425209 -0.089221 -0.132364 0.997804 0.603994 0.000000 0.000000 0.000000 -0.375962 1.892809 -0.213048 0.216719 1.836150 0.038633 0.038931 -1.525700 -1.175487 0.000000 0.000000 0.000000 0.856578 0.460487 1.429643 -0.271724 0.847915 -1.549130 -0.091125 -0.240328 0.374315 0.000000 0.000000 0.000000 1.314876 -0.502020 -0.465621 1.253494 1.564915 0.474238 1.483845 -1.930507 0.174693 0.000000 0.000000 0.000000 -1.909971 0.383871 -0.116745 -1.870758 0.111997 -0.301856 -1.866140 -0.968850 -0.911153 0.000000 0.000000 0.000000 
-1801.939087 986.210815 1097.891968 44.051765 0.689794 0.224403 0.050222 -1.989809 -0.505496 0.133284 0.297181 0.087516 0.115497 -0.424538 -0.092334 -0.134231 1.007128 0.611428 0.000000 0.000000 0.000000 -0.380669 1.883622 -0.221579 0.215608 1.825259 0.036060 0.039880 -1.527520 -1.169887 0.000000 0.000000 0.000000 0.839281 0.453671 1.447617 -0.272084 0.848404 -1.552546 -0.092189 -0.242328 0.365501 0.000000 0.000000 0.000000 1.318594 -0.524101 -0.471140 1.257890 1.564650 0.475651 1.487993 -1.922346 0.178720 0.000000 0.000000 0.000000 -1.905114 0.361624 -0.118718 -1.866387 0.117573 -0.303978 -1.862439 -0.964210 -0.909190 0.000000 0.000000 0.000000 
-1802.021362 986.188660 1097.909058 44.037630 0.705558 0.225942 0.056653 -1.981582 -0.515664 0.139285 0.294782 0.090588 0.121375 -0.423316 -0.094400 -0.136117 1.019273 0.619047 0.000000 0.000000 0.000000 -0.388075 1.878863 -0.232670 0.215598 1.817146 0.036800 0.041083 -1.533904 -1.167974 0.000000 0.000000 0.000000 0.826205 0.449458 1.461549 -0.272770 0.848831 -1.550246 -0.093899 -0.246001 0.353807 0.000000 0.000000 0.000000 1.323064 -0.547520 -0.478318 1.262922 1.564326 0.478073 1.492907 -1.914822 0.182931 0.000000 0.000000 0.000000 -1.899413 0.338736 -0.121802 -1.861280 0.122276 -0.305766 -1.857930 -0.959746 -0.906866 0.000000 0.000000 0.000000 
-1802.085938 986.186829 1097.920044 44.020976 0.724301 0.228677 0.062898 -1.982827 -0.526102 0.145624 0.295424 0.094766 0.127420 -0.425008 -0.097671 -0.137714 1.036785 0.626189 0.000000 0.000000 0.000000 -0.393761 1.881833 -0.250697 0.217467 1.814315 0.045550 0.042515 -1.544982 -1.170085 0.000000 0.000000 0.000000 0.824495 0.450120 1.469651 -0.273726 0.849144 -1.538452 -0.096508 -0.250653 0.336076 0.000000 0.000000 0.000000 1.328449 -0.572003 -0.488193 1.268618 1.562482 0.482593 1.498691 -1.909368 0.186999 0.000000 0.000000 0.000000 -1.893068 0.315847 -0.126175 -1.855678 0.124015 -0.307743 -1.852760 -0.956569 -0.904311 0.000000 0.000000 0.000000 
-1802.139282 986.193970 1097.928955 44.002597 0.745170 0.232249 0.070188 -1.987806 -0.537349 0.153109 0.295475 0.097967 0.134700 -0.425999 -0.099345 -0.139305 1.056412 0.633308 0.000000 0.000000 0.000000 -0.403803 1.889188 -0.271893 0.220431 1.813808 0.057880 0.044245 -1.560572 -1.175472 0.000000 0.000000 0.000000 0.826745 0.453017 1.473484 -0.274961 0.849052 -1.520920 -0.099761 -0.256740 0.315103 0.000000 0.000000 0.000000 1.334354 -0.597946 -0.499417 1.274769 1.560339 0.487775 1.504988 -1.904317 0.191195 0.000000 0.000000 0.000000 -1.886033 0.291870 -0.131331 -1.849449 0.125332 -0.309844 -1.846966 -0.953483 -0.901475 0.000000 0.000000 0.000000 
-1802.186890 986.200378 1097.932007 43.983294 0.762966 0.234620 0.077471 -1.984424 -0.546345 0.160147 0.294903 0.101240 0.141547 -0.425347 -0.101798 -0.140335 1.072553 0.637811 0.000000 0.000000 0.000000 -0.416426 1.898166 -0.290438 0.224508 1.814667 0.069015 0.047265 -1.588579 -1.185250 0.000000 0.000000 0.000000 0.831439 0.455982 1.476837 -0.276690 0.848998 -1.505799 -0.103049 -0.265984 0.299411 0.000000 0.000000 0.000000 1.340544 -0.620516 -0.508288 1.281273 1.558876 0.491491 1.511529 -1.901108 0.195024 0.000000 0.000000 0.000000 -1.878320 0.270761 -0.135716 -1.842407 0.128950 -0.310815 -1.840531 -0.952326 -0.898466 0.000000 0.000000 0.000000 
-1802.228271 986.201660 1097.926025 43.963967 0.775349 0.234867 0.085636 -1.966147 -0.551521 0.167138 0.290897 0.101951 0.148653 -0.420160 -0.101179 -0.140360 1.080440 0.637615 0.000000 0.000000 0.000000 -0.436835 1.905744 -0.304918 0.228460 1.814047 0.074696 0.050906 -1.624589 -1.199397 0.000000 0.000000 0.000000 0.833272 0.456793 1.476504 -0.278164 0.846886 -1.491104 -0.105844 -0.275777 0.289250 0.000000 0.000000 0.000000 1.346610 -0.637178 -0.512587 1.287847 1.557744 0.491815 1.517721 -1.899475 0.198282 0.000000 0.000000 0.000000 -1.870091 0.254523 -0.138068 -1.834550 0.135612 -0.310925 -1.833546 -0.953396 -0.895349 0.000000 0.000000 0.000000 
-1802.263916 986.202209 1097.916016 43.944295 0.785410 0.234029 0.093180 -1.940636 -0.554707 0.173117 0.285953 0.102605 0.154820 -0.412202 -0.100484 -0.139399 1.085165 0.633411 0.000000 0.000000 0.000000 -0.458976 1.914327 -0.316555 0.233314 1.814498 0.078396 0.055747 -1.672735 -1.217740 0.000000 0.000000 0.000000 0.839654 0.457669 1.474537 -0.280059 0.844063 -1.477843 -0.108760 -0.288676 0.283463 0.000000 0.000000 0.000000 1.352676 -0.651379 -0.514622 1.294537 1.557483 0.490456 1.523883 -1.898887 0.201257 0.000000 0.000000 0.000000 -1.861369 0.240175 -0.139505 -1.826053 0.144626 -0.310415 -1.826101 -0.955295 -0.892078 0.000000 0.000000 0.000000 
